<?xml version="1.0" encoding="utf-8" standalone="no"?>
<!DOCTYPE svg PUBLIC "-//W3C//DTD SVG 1.1//EN"
  "http://www.w3.org/Graphics/SVG/1.1/DTD/svg11.dtd">
<svg xmlns:xlink="http://www.w3.org/1999/xlink" width="1440pt" height="720pt" viewBox="0 0 1440 720" xmlns="http://www.w3.org/2000/svg" version="1.1">
 <metadata>
  <rdf:RDF xmlns:dc="http://purl.org/dc/elements/1.1/" xmlns:cc="http://creativecommons.org/ns#" xmlns:rdf="http://www.w3.org/1999/02/22-rdf-syntax-ns#">
   <cc:Work>
    <dc:type rdf:resource="http://purl.org/dc/dcmitype/StillImage"/>
    <dc:date>2024-04-28T22:56:50.194237</dc:date>
    <dc:format>image/svg+xml</dc:format>
    <dc:creator>
     <cc:Agent>
      <dc:title>Matplotlib v3.8.4, https://matplotlib.org/</dc:title>
     </cc:Agent>
    </dc:creator>
   </cc:Work>
  </rdf:RDF>
 </metadata>
 <defs>
  <style type="text/css">*{stroke-linejoin: round; stroke-linecap: butt}</style>
 </defs>
 <g id="figure_1">
  <g id="patch_1">
   <path d="M 0 720 
L 1440 720 
L 1440 0 
L 0 0 
z
" style="fill: #ffffff"/>
  </g>
  <g id="axes_1">
   <g id="text_1">
    <!-- Decision Tree from Final Random Forest Classifier -->
    <g transform="translate(590.098125 80.4) scale(0.12 -0.12)">
     <defs>
      <path id="DejaVuSans-44" d="M 1259 4147 
L 1259 519 
L 2022 519 
Q 2988 519 3436 956 
Q 3884 1394 3884 2338 
Q 3884 3275 3436 3711 
Q 2988 4147 2022 4147 
L 1259 4147 
z
M 628 4666 
L 1925 4666 
Q 3281 4666 3915 4102 
Q 4550 3538 4550 2338 
Q 4550 1131 3912 565 
Q 3275 0 1925 0 
L 628 0 
L 628 4666 
z
" transform="scale(0.015625)"/>
      <path id="DejaVuSans-65" d="M 3597 1894 
L 3597 1613 
L 953 1613 
Q 991 1019 1311 708 
Q 1631 397 2203 397 
Q 2534 397 2845 478 
Q 3156 559 3463 722 
L 3463 178 
Q 3153 47 2828 -22 
Q 2503 -91 2169 -91 
Q 1331 -91 842 396 
Q 353 884 353 1716 
Q 353 2575 817 3079 
Q 1281 3584 2069 3584 
Q 2775 3584 3186 3129 
Q 3597 2675 3597 1894 
z
M 3022 2063 
Q 3016 2534 2758 2815 
Q 2500 3097 2075 3097 
Q 1594 3097 1305 2825 
Q 1016 2553 972 2059 
L 3022 2063 
z
" transform="scale(0.015625)"/>
      <path id="DejaVuSans-63" d="M 3122 3366 
L 3122 2828 
Q 2878 2963 2633 3030 
Q 2388 3097 2138 3097 
Q 1578 3097 1268 2742 
Q 959 2388 959 1747 
Q 959 1106 1268 751 
Q 1578 397 2138 397 
Q 2388 397 2633 464 
Q 2878 531 3122 666 
L 3122 134 
Q 2881 22 2623 -34 
Q 2366 -91 2075 -91 
Q 1284 -91 818 406 
Q 353 903 353 1747 
Q 353 2603 823 3093 
Q 1294 3584 2113 3584 
Q 2378 3584 2631 3529 
Q 2884 3475 3122 3366 
z
" transform="scale(0.015625)"/>
      <path id="DejaVuSans-69" d="M 603 3500 
L 1178 3500 
L 1178 0 
L 603 0 
L 603 3500 
z
M 603 4863 
L 1178 4863 
L 1178 4134 
L 603 4134 
L 603 4863 
z
" transform="scale(0.015625)"/>
      <path id="DejaVuSans-73" d="M 2834 3397 
L 2834 2853 
Q 2591 2978 2328 3040 
Q 2066 3103 1784 3103 
Q 1356 3103 1142 2972 
Q 928 2841 928 2578 
Q 928 2378 1081 2264 
Q 1234 2150 1697 2047 
L 1894 2003 
Q 2506 1872 2764 1633 
Q 3022 1394 3022 966 
Q 3022 478 2636 193 
Q 2250 -91 1575 -91 
Q 1294 -91 989 -36 
Q 684 19 347 128 
L 347 722 
Q 666 556 975 473 
Q 1284 391 1588 391 
Q 1994 391 2212 530 
Q 2431 669 2431 922 
Q 2431 1156 2273 1281 
Q 2116 1406 1581 1522 
L 1381 1569 
Q 847 1681 609 1914 
Q 372 2147 372 2553 
Q 372 3047 722 3315 
Q 1072 3584 1716 3584 
Q 2034 3584 2315 3537 
Q 2597 3491 2834 3397 
z
" transform="scale(0.015625)"/>
      <path id="DejaVuSans-6f" d="M 1959 3097 
Q 1497 3097 1228 2736 
Q 959 2375 959 1747 
Q 959 1119 1226 758 
Q 1494 397 1959 397 
Q 2419 397 2687 759 
Q 2956 1122 2956 1747 
Q 2956 2369 2687 2733 
Q 2419 3097 1959 3097 
z
M 1959 3584 
Q 2709 3584 3137 3096 
Q 3566 2609 3566 1747 
Q 3566 888 3137 398 
Q 2709 -91 1959 -91 
Q 1206 -91 779 398 
Q 353 888 353 1747 
Q 353 2609 779 3096 
Q 1206 3584 1959 3584 
z
" transform="scale(0.015625)"/>
      <path id="DejaVuSans-6e" d="M 3513 2113 
L 3513 0 
L 2938 0 
L 2938 2094 
Q 2938 2591 2744 2837 
Q 2550 3084 2163 3084 
Q 1697 3084 1428 2787 
Q 1159 2491 1159 1978 
L 1159 0 
L 581 0 
L 581 3500 
L 1159 3500 
L 1159 2956 
Q 1366 3272 1645 3428 
Q 1925 3584 2291 3584 
Q 2894 3584 3203 3211 
Q 3513 2838 3513 2113 
z
" transform="scale(0.015625)"/>
      <path id="DejaVuSans-20" transform="scale(0.015625)"/>
      <path id="DejaVuSans-54" d="M -19 4666 
L 3928 4666 
L 3928 4134 
L 2272 4134 
L 2272 0 
L 1638 0 
L 1638 4134 
L -19 4134 
L -19 4666 
z
" transform="scale(0.015625)"/>
      <path id="DejaVuSans-72" d="M 2631 2963 
Q 2534 3019 2420 3045 
Q 2306 3072 2169 3072 
Q 1681 3072 1420 2755 
Q 1159 2438 1159 1844 
L 1159 0 
L 581 0 
L 581 3500 
L 1159 3500 
L 1159 2956 
Q 1341 3275 1631 3429 
Q 1922 3584 2338 3584 
Q 2397 3584 2469 3576 
Q 2541 3569 2628 3553 
L 2631 2963 
z
" transform="scale(0.015625)"/>
      <path id="DejaVuSans-66" d="M 2375 4863 
L 2375 4384 
L 1825 4384 
Q 1516 4384 1395 4259 
Q 1275 4134 1275 3809 
L 1275 3500 
L 2222 3500 
L 2222 3053 
L 1275 3053 
L 1275 0 
L 697 0 
L 697 3053 
L 147 3053 
L 147 3500 
L 697 3500 
L 697 3744 
Q 697 4328 969 4595 
Q 1241 4863 1831 4863 
L 2375 4863 
z
" transform="scale(0.015625)"/>
      <path id="DejaVuSans-6d" d="M 3328 2828 
Q 3544 3216 3844 3400 
Q 4144 3584 4550 3584 
Q 5097 3584 5394 3201 
Q 5691 2819 5691 2113 
L 5691 0 
L 5113 0 
L 5113 2094 
Q 5113 2597 4934 2840 
Q 4756 3084 4391 3084 
Q 3944 3084 3684 2787 
Q 3425 2491 3425 1978 
L 3425 0 
L 2847 0 
L 2847 2094 
Q 2847 2600 2669 2842 
Q 2491 3084 2119 3084 
Q 1678 3084 1418 2786 
Q 1159 2488 1159 1978 
L 1159 0 
L 581 0 
L 581 3500 
L 1159 3500 
L 1159 2956 
Q 1356 3278 1631 3431 
Q 1906 3584 2284 3584 
Q 2666 3584 2933 3390 
Q 3200 3197 3328 2828 
z
" transform="scale(0.015625)"/>
      <path id="DejaVuSans-46" d="M 628 4666 
L 3309 4666 
L 3309 4134 
L 1259 4134 
L 1259 2759 
L 3109 2759 
L 3109 2228 
L 1259 2228 
L 1259 0 
L 628 0 
L 628 4666 
z
" transform="scale(0.015625)"/>
      <path id="DejaVuSans-61" d="M 2194 1759 
Q 1497 1759 1228 1600 
Q 959 1441 959 1056 
Q 959 750 1161 570 
Q 1363 391 1709 391 
Q 2188 391 2477 730 
Q 2766 1069 2766 1631 
L 2766 1759 
L 2194 1759 
z
M 3341 1997 
L 3341 0 
L 2766 0 
L 2766 531 
Q 2569 213 2275 61 
Q 1981 -91 1556 -91 
Q 1019 -91 701 211 
Q 384 513 384 1019 
Q 384 1609 779 1909 
Q 1175 2209 1959 2209 
L 2766 2209 
L 2766 2266 
Q 2766 2663 2505 2880 
Q 2244 3097 1772 3097 
Q 1472 3097 1187 3025 
Q 903 2953 641 2809 
L 641 3341 
Q 956 3463 1253 3523 
Q 1550 3584 1831 3584 
Q 2591 3584 2966 3190 
Q 3341 2797 3341 1997 
z
" transform="scale(0.015625)"/>
      <path id="DejaVuSans-6c" d="M 603 4863 
L 1178 4863 
L 1178 0 
L 603 0 
L 603 4863 
z
" transform="scale(0.015625)"/>
      <path id="DejaVuSans-52" d="M 2841 2188 
Q 3044 2119 3236 1894 
Q 3428 1669 3622 1275 
L 4263 0 
L 3584 0 
L 2988 1197 
Q 2756 1666 2539 1819 
Q 2322 1972 1947 1972 
L 1259 1972 
L 1259 0 
L 628 0 
L 628 4666 
L 2053 4666 
Q 2853 4666 3247 4331 
Q 3641 3997 3641 3322 
Q 3641 2881 3436 2590 
Q 3231 2300 2841 2188 
z
M 1259 4147 
L 1259 2491 
L 2053 2491 
Q 2509 2491 2742 2702 
Q 2975 2913 2975 3322 
Q 2975 3731 2742 3939 
Q 2509 4147 2053 4147 
L 1259 4147 
z
" transform="scale(0.015625)"/>
      <path id="DejaVuSans-64" d="M 2906 2969 
L 2906 4863 
L 3481 4863 
L 3481 0 
L 2906 0 
L 2906 525 
Q 2725 213 2448 61 
Q 2172 -91 1784 -91 
Q 1150 -91 751 415 
Q 353 922 353 1747 
Q 353 2572 751 3078 
Q 1150 3584 1784 3584 
Q 2172 3584 2448 3432 
Q 2725 3281 2906 2969 
z
M 947 1747 
Q 947 1113 1208 752 
Q 1469 391 1925 391 
Q 2381 391 2643 752 
Q 2906 1113 2906 1747 
Q 2906 2381 2643 2742 
Q 2381 3103 1925 3103 
Q 1469 3103 1208 2742 
Q 947 2381 947 1747 
z
" transform="scale(0.015625)"/>
      <path id="DejaVuSans-74" d="M 1172 4494 
L 1172 3500 
L 2356 3500 
L 2356 3053 
L 1172 3053 
L 1172 1153 
Q 1172 725 1289 603 
Q 1406 481 1766 481 
L 2356 481 
L 2356 0 
L 1766 0 
Q 1100 0 847 248 
Q 594 497 594 1153 
L 594 3053 
L 172 3053 
L 172 3500 
L 594 3500 
L 594 4494 
L 1172 4494 
z
" transform="scale(0.015625)"/>
      <path id="DejaVuSans-43" d="M 4122 4306 
L 4122 3641 
Q 3803 3938 3442 4084 
Q 3081 4231 2675 4231 
Q 1875 4231 1450 3742 
Q 1025 3253 1025 2328 
Q 1025 1406 1450 917 
Q 1875 428 2675 428 
Q 3081 428 3442 575 
Q 3803 722 4122 1019 
L 4122 359 
Q 3791 134 3420 21 
Q 3050 -91 2638 -91 
Q 1578 -91 968 557 
Q 359 1206 359 2328 
Q 359 3453 968 4101 
Q 1578 4750 2638 4750 
Q 3056 4750 3426 4639 
Q 3797 4528 4122 4306 
z
" transform="scale(0.015625)"/>
     </defs>
     <use xlink:href="#DejaVuSans-44"/>
     <use xlink:href="#DejaVuSans-65" x="77.001953"/>
     <use xlink:href="#DejaVuSans-63" x="138.525391"/>
     <use xlink:href="#DejaVuSans-69" x="193.505859"/>
     <use xlink:href="#DejaVuSans-73" x="221.289062"/>
     <use xlink:href="#DejaVuSans-69" x="273.388672"/>
     <use xlink:href="#DejaVuSans-6f" x="301.171875"/>
     <use xlink:href="#DejaVuSans-6e" x="362.353516"/>
     <use xlink:href="#DejaVuSans-20" x="425.732422"/>
     <use xlink:href="#DejaVuSans-54" x="457.519531"/>
     <use xlink:href="#DejaVuSans-72" x="503.853516"/>
     <use xlink:href="#DejaVuSans-65" x="542.716797"/>
     <use xlink:href="#DejaVuSans-65" x="604.240234"/>
     <use xlink:href="#DejaVuSans-20" x="665.763672"/>
     <use xlink:href="#DejaVuSans-66" x="697.550781"/>
     <use xlink:href="#DejaVuSans-72" x="732.755859"/>
     <use xlink:href="#DejaVuSans-6f" x="771.619141"/>
     <use xlink:href="#DejaVuSans-6d" x="832.800781"/>
     <use xlink:href="#DejaVuSans-20" x="930.212891"/>
     <use xlink:href="#DejaVuSans-46" x="962"/>
     <use xlink:href="#DejaVuSans-69" x="1012.269531"/>
     <use xlink:href="#DejaVuSans-6e" x="1040.052734"/>
     <use xlink:href="#DejaVuSans-61" x="1103.431641"/>
     <use xlink:href="#DejaVuSans-6c" x="1164.710938"/>
     <use xlink:href="#DejaVuSans-20" x="1192.494141"/>
     <use xlink:href="#DejaVuSans-52" x="1224.28125"/>
     <use xlink:href="#DejaVuSans-61" x="1291.513672"/>
     <use xlink:href="#DejaVuSans-6e" x="1352.792969"/>
     <use xlink:href="#DejaVuSans-64" x="1416.171875"/>
     <use xlink:href="#DejaVuSans-6f" x="1479.648438"/>
     <use xlink:href="#DejaVuSans-6d" x="1540.830078"/>
     <use xlink:href="#DejaVuSans-20" x="1638.242188"/>
     <use xlink:href="#DejaVuSans-46" x="1670.029297"/>
     <use xlink:href="#DejaVuSans-6f" x="1723.923828"/>
     <use xlink:href="#DejaVuSans-72" x="1785.105469"/>
     <use xlink:href="#DejaVuSans-65" x="1823.96875"/>
     <use xlink:href="#DejaVuSans-73" x="1885.492188"/>
     <use xlink:href="#DejaVuSans-74" x="1937.591797"/>
     <use xlink:href="#DejaVuSans-20" x="1976.800781"/>
     <use xlink:href="#DejaVuSans-43" x="2008.587891"/>
     <use xlink:href="#DejaVuSans-6c" x="2078.412109"/>
     <use xlink:href="#DejaVuSans-61" x="2106.195312"/>
     <use xlink:href="#DejaVuSans-73" x="2167.474609"/>
     <use xlink:href="#DejaVuSans-73" x="2219.574219"/>
     <use xlink:href="#DejaVuSans-69" x="2271.673828"/>
     <use xlink:href="#DejaVuSans-66" x="2299.457031"/>
     <use xlink:href="#DejaVuSans-69" x="2334.662109"/>
     <use xlink:href="#DejaVuSans-65" x="2362.445312"/>
     <use xlink:href="#DejaVuSans-72" x="2423.96875"/>
    </g>
   </g>
   <g id="patch_2">
    <path d="M 346.247201 512.967148 
Q 401.683635 439.528776 457.793668 365.198066 
" style="fill: none; stroke: #000000; stroke-linecap: round"/>
    <path d="M 351.522996 510.349726 
L 346.247201 512.967148 
L 347.31874 507.17606 
" style="fill: none; stroke: #000000; stroke-linecap: round"/>
   </g>
   <g id="text_2">
    <g id="patch_3">
     <path d="M 244.782996 580.843042 
L 394.217004 580.843042 
Q 398.167726 580.843042 398.167726 576.89232 
L 398.167726 519.90768 
Q 398.167726 515.956958 394.217004 515.956958 
L 244.782996 515.956958 
Q 240.832274 515.956958 240.832274 519.90768 
L 240.832274 576.89232 
Q 240.832274 580.843042 244.782996 580.843042 
z
" style="fill: #e5823a; stroke: #000000; stroke-linejoin: miter"/>
    </g>
    <!-- gini = 0.011 -->
    <g transform="translate(278.935137 529.914118) scale(0.131691 -0.131691)">
     <defs>
      <path id="DejaVuSans-67" d="M 2906 1791 
Q 2906 2416 2648 2759 
Q 2391 3103 1925 3103 
Q 1463 3103 1205 2759 
Q 947 2416 947 1791 
Q 947 1169 1205 825 
Q 1463 481 1925 481 
Q 2391 481 2648 825 
Q 2906 1169 2906 1791 
z
M 3481 434 
Q 3481 -459 3084 -895 
Q 2688 -1331 1869 -1331 
Q 1566 -1331 1297 -1286 
Q 1028 -1241 775 -1147 
L 775 -588 
Q 1028 -725 1275 -790 
Q 1522 -856 1778 -856 
Q 2344 -856 2625 -561 
Q 2906 -266 2906 331 
L 2906 616 
Q 2728 306 2450 153 
Q 2172 0 1784 0 
Q 1141 0 747 490 
Q 353 981 353 1791 
Q 353 2603 747 3093 
Q 1141 3584 1784 3584 
Q 2172 3584 2450 3431 
Q 2728 3278 2906 2969 
L 2906 3500 
L 3481 3500 
L 3481 434 
z
" transform="scale(0.015625)"/>
      <path id="DejaVuSans-3d" d="M 678 2906 
L 4684 2906 
L 4684 2381 
L 678 2381 
L 678 2906 
z
M 678 1631 
L 4684 1631 
L 4684 1100 
L 678 1100 
L 678 1631 
z
" transform="scale(0.015625)"/>
      <path id="DejaVuSans-30" d="M 2034 4250 
Q 1547 4250 1301 3770 
Q 1056 3291 1056 2328 
Q 1056 1369 1301 889 
Q 1547 409 2034 409 
Q 2525 409 2770 889 
Q 3016 1369 3016 2328 
Q 3016 3291 2770 3770 
Q 2525 4250 2034 4250 
z
M 2034 4750 
Q 2819 4750 3233 4129 
Q 3647 3509 3647 2328 
Q 3647 1150 3233 529 
Q 2819 -91 2034 -91 
Q 1250 -91 836 529 
Q 422 1150 422 2328 
Q 422 3509 836 4129 
Q 1250 4750 2034 4750 
z
" transform="scale(0.015625)"/>
      <path id="DejaVuSans-2e" d="M 684 794 
L 1344 794 
L 1344 0 
L 684 0 
L 684 794 
z
" transform="scale(0.015625)"/>
      <path id="DejaVuSans-31" d="M 794 531 
L 1825 531 
L 1825 4091 
L 703 3866 
L 703 4441 
L 1819 4666 
L 2450 4666 
L 2450 531 
L 3481 531 
L 3481 0 
L 794 0 
L 794 531 
z
" transform="scale(0.015625)"/>
     </defs>
     <use xlink:href="#DejaVuSans-67"/>
     <use xlink:href="#DejaVuSans-69" x="63.476562"/>
     <use xlink:href="#DejaVuSans-6e" x="91.259766"/>
     <use xlink:href="#DejaVuSans-69" x="154.638672"/>
     <use xlink:href="#DejaVuSans-20" x="182.421875"/>
     <use xlink:href="#DejaVuSans-3d" x="214.208984"/>
     <use xlink:href="#DejaVuSans-20" x="297.998047"/>
     <use xlink:href="#DejaVuSans-30" x="329.785156"/>
     <use xlink:href="#DejaVuSans-2e" x="393.408203"/>
     <use xlink:href="#DejaVuSans-30" x="425.195312"/>
     <use xlink:href="#DejaVuSans-31" x="488.818359"/>
     <use xlink:href="#DejaVuSans-31" x="552.441406"/>
    </g>
    <!-- samples = 114493 -->
    <g transform="translate(257.290529 544.6606) scale(0.131691 -0.131691)">
     <defs>
      <path id="DejaVuSans-70" d="M 1159 525 
L 1159 -1331 
L 581 -1331 
L 581 3500 
L 1159 3500 
L 1159 2969 
Q 1341 3281 1617 3432 
Q 1894 3584 2278 3584 
Q 2916 3584 3314 3078 
Q 3713 2572 3713 1747 
Q 3713 922 3314 415 
Q 2916 -91 2278 -91 
Q 1894 -91 1617 61 
Q 1341 213 1159 525 
z
M 3116 1747 
Q 3116 2381 2855 2742 
Q 2594 3103 2138 3103 
Q 1681 3103 1420 2742 
Q 1159 2381 1159 1747 
Q 1159 1113 1420 752 
Q 1681 391 2138 391 
Q 2594 391 2855 752 
Q 3116 1113 3116 1747 
z
" transform="scale(0.015625)"/>
      <path id="DejaVuSans-34" d="M 2419 4116 
L 825 1625 
L 2419 1625 
L 2419 4116 
z
M 2253 4666 
L 3047 4666 
L 3047 1625 
L 3713 1625 
L 3713 1100 
L 3047 1100 
L 3047 0 
L 2419 0 
L 2419 1100 
L 313 1100 
L 313 1709 
L 2253 4666 
z
" transform="scale(0.015625)"/>
      <path id="DejaVuSans-39" d="M 703 97 
L 703 672 
Q 941 559 1184 500 
Q 1428 441 1663 441 
Q 2288 441 2617 861 
Q 2947 1281 2994 2138 
Q 2813 1869 2534 1725 
Q 2256 1581 1919 1581 
Q 1219 1581 811 2004 
Q 403 2428 403 3163 
Q 403 3881 828 4315 
Q 1253 4750 1959 4750 
Q 2769 4750 3195 4129 
Q 3622 3509 3622 2328 
Q 3622 1225 3098 567 
Q 2575 -91 1691 -91 
Q 1453 -91 1209 -44 
Q 966 3 703 97 
z
M 1959 2075 
Q 2384 2075 2632 2365 
Q 2881 2656 2881 3163 
Q 2881 3666 2632 3958 
Q 2384 4250 1959 4250 
Q 1534 4250 1286 3958 
Q 1038 3666 1038 3163 
Q 1038 2656 1286 2365 
Q 1534 2075 1959 2075 
z
" transform="scale(0.015625)"/>
      <path id="DejaVuSans-33" d="M 2597 2516 
Q 3050 2419 3304 2112 
Q 3559 1806 3559 1356 
Q 3559 666 3084 287 
Q 2609 -91 1734 -91 
Q 1441 -91 1130 -33 
Q 819 25 488 141 
L 488 750 
Q 750 597 1062 519 
Q 1375 441 1716 441 
Q 2309 441 2620 675 
Q 2931 909 2931 1356 
Q 2931 1769 2642 2001 
Q 2353 2234 1838 2234 
L 1294 2234 
L 1294 2753 
L 1863 2753 
Q 2328 2753 2575 2939 
Q 2822 3125 2822 3475 
Q 2822 3834 2567 4026 
Q 2313 4219 1838 4219 
Q 1578 4219 1281 4162 
Q 984 4106 628 3988 
L 628 4550 
Q 988 4650 1302 4700 
Q 1616 4750 1894 4750 
Q 2613 4750 3031 4423 
Q 3450 4097 3450 3541 
Q 3450 3153 3228 2886 
Q 3006 2619 2597 2516 
z
" transform="scale(0.015625)"/>
     </defs>
     <use xlink:href="#DejaVuSans-73"/>
     <use xlink:href="#DejaVuSans-61" x="52.099609"/>
     <use xlink:href="#DejaVuSans-6d" x="113.378906"/>
     <use xlink:href="#DejaVuSans-70" x="210.791016"/>
     <use xlink:href="#DejaVuSans-6c" x="274.267578"/>
     <use xlink:href="#DejaVuSans-65" x="302.050781"/>
     <use xlink:href="#DejaVuSans-73" x="363.574219"/>
     <use xlink:href="#DejaVuSans-20" x="415.673828"/>
     <use xlink:href="#DejaVuSans-3d" x="447.460938"/>
     <use xlink:href="#DejaVuSans-20" x="531.25"/>
     <use xlink:href="#DejaVuSans-31" x="563.037109"/>
     <use xlink:href="#DejaVuSans-31" x="626.660156"/>
     <use xlink:href="#DejaVuSans-34" x="690.283203"/>
     <use xlink:href="#DejaVuSans-34" x="753.90625"/>
     <use xlink:href="#DejaVuSans-39" x="817.529297"/>
     <use xlink:href="#DejaVuSans-33" x="881.152344"/>
    </g>
    <!-- value = [180564, 973] -->
    <g transform="translate(244.782996 559.407082) scale(0.131691 -0.131691)">
     <defs>
      <path id="DejaVuSans-76" d="M 191 3500 
L 800 3500 
L 1894 563 
L 2988 3500 
L 3597 3500 
L 2284 0 
L 1503 0 
L 191 3500 
z
" transform="scale(0.015625)"/>
      <path id="DejaVuSans-75" d="M 544 1381 
L 544 3500 
L 1119 3500 
L 1119 1403 
Q 1119 906 1312 657 
Q 1506 409 1894 409 
Q 2359 409 2629 706 
Q 2900 1003 2900 1516 
L 2900 3500 
L 3475 3500 
L 3475 0 
L 2900 0 
L 2900 538 
Q 2691 219 2414 64 
Q 2138 -91 1772 -91 
Q 1169 -91 856 284 
Q 544 659 544 1381 
z
M 1991 3584 
L 1991 3584 
z
" transform="scale(0.015625)"/>
      <path id="DejaVuSans-5b" d="M 550 4863 
L 1875 4863 
L 1875 4416 
L 1125 4416 
L 1125 -397 
L 1875 -397 
L 1875 -844 
L 550 -844 
L 550 4863 
z
" transform="scale(0.015625)"/>
      <path id="DejaVuSans-38" d="M 2034 2216 
Q 1584 2216 1326 1975 
Q 1069 1734 1069 1313 
Q 1069 891 1326 650 
Q 1584 409 2034 409 
Q 2484 409 2743 651 
Q 3003 894 3003 1313 
Q 3003 1734 2745 1975 
Q 2488 2216 2034 2216 
z
M 1403 2484 
Q 997 2584 770 2862 
Q 544 3141 544 3541 
Q 544 4100 942 4425 
Q 1341 4750 2034 4750 
Q 2731 4750 3128 4425 
Q 3525 4100 3525 3541 
Q 3525 3141 3298 2862 
Q 3072 2584 2669 2484 
Q 3125 2378 3379 2068 
Q 3634 1759 3634 1313 
Q 3634 634 3220 271 
Q 2806 -91 2034 -91 
Q 1263 -91 848 271 
Q 434 634 434 1313 
Q 434 1759 690 2068 
Q 947 2378 1403 2484 
z
M 1172 3481 
Q 1172 3119 1398 2916 
Q 1625 2713 2034 2713 
Q 2441 2713 2670 2916 
Q 2900 3119 2900 3481 
Q 2900 3844 2670 4047 
Q 2441 4250 2034 4250 
Q 1625 4250 1398 4047 
Q 1172 3844 1172 3481 
z
" transform="scale(0.015625)"/>
      <path id="DejaVuSans-35" d="M 691 4666 
L 3169 4666 
L 3169 4134 
L 1269 4134 
L 1269 2991 
Q 1406 3038 1543 3061 
Q 1681 3084 1819 3084 
Q 2600 3084 3056 2656 
Q 3513 2228 3513 1497 
Q 3513 744 3044 326 
Q 2575 -91 1722 -91 
Q 1428 -91 1123 -41 
Q 819 9 494 109 
L 494 744 
Q 775 591 1075 516 
Q 1375 441 1709 441 
Q 2250 441 2565 725 
Q 2881 1009 2881 1497 
Q 2881 1984 2565 2268 
Q 2250 2553 1709 2553 
Q 1456 2553 1204 2497 
Q 953 2441 691 2322 
L 691 4666 
z
" transform="scale(0.015625)"/>
      <path id="DejaVuSans-36" d="M 2113 2584 
Q 1688 2584 1439 2293 
Q 1191 2003 1191 1497 
Q 1191 994 1439 701 
Q 1688 409 2113 409 
Q 2538 409 2786 701 
Q 3034 994 3034 1497 
Q 3034 2003 2786 2293 
Q 2538 2584 2113 2584 
z
M 3366 4563 
L 3366 3988 
Q 3128 4100 2886 4159 
Q 2644 4219 2406 4219 
Q 1781 4219 1451 3797 
Q 1122 3375 1075 2522 
Q 1259 2794 1537 2939 
Q 1816 3084 2150 3084 
Q 2853 3084 3261 2657 
Q 3669 2231 3669 1497 
Q 3669 778 3244 343 
Q 2819 -91 2113 -91 
Q 1303 -91 875 529 
Q 447 1150 447 2328 
Q 447 3434 972 4092 
Q 1497 4750 2381 4750 
Q 2619 4750 2861 4703 
Q 3103 4656 3366 4563 
z
" transform="scale(0.015625)"/>
      <path id="DejaVuSans-2c" d="M 750 794 
L 1409 794 
L 1409 256 
L 897 -744 
L 494 -744 
L 750 256 
L 750 794 
z
" transform="scale(0.015625)"/>
      <path id="DejaVuSans-37" d="M 525 4666 
L 3525 4666 
L 3525 4397 
L 1831 0 
L 1172 0 
L 2766 4134 
L 525 4134 
L 525 4666 
z
" transform="scale(0.015625)"/>
      <path id="DejaVuSans-5d" d="M 1947 4863 
L 1947 -844 
L 622 -844 
L 622 -397 
L 1369 -397 
L 1369 4416 
L 622 4416 
L 622 4863 
L 1947 4863 
z
" transform="scale(0.015625)"/>
     </defs>
     <use xlink:href="#DejaVuSans-76"/>
     <use xlink:href="#DejaVuSans-61" x="59.179688"/>
     <use xlink:href="#DejaVuSans-6c" x="120.458984"/>
     <use xlink:href="#DejaVuSans-75" x="148.242188"/>
     <use xlink:href="#DejaVuSans-65" x="211.621094"/>
     <use xlink:href="#DejaVuSans-20" x="273.144531"/>
     <use xlink:href="#DejaVuSans-3d" x="304.931641"/>
     <use xlink:href="#DejaVuSans-20" x="388.720703"/>
     <use xlink:href="#DejaVuSans-5b" x="420.507812"/>
     <use xlink:href="#DejaVuSans-31" x="459.521484"/>
     <use xlink:href="#DejaVuSans-38" x="523.144531"/>
     <use xlink:href="#DejaVuSans-30" x="586.767578"/>
     <use xlink:href="#DejaVuSans-35" x="650.390625"/>
     <use xlink:href="#DejaVuSans-36" x="714.013672"/>
     <use xlink:href="#DejaVuSans-34" x="777.636719"/>
     <use xlink:href="#DejaVuSans-2c" x="841.259766"/>
     <use xlink:href="#DejaVuSans-20" x="873.046875"/>
     <use xlink:href="#DejaVuSans-39" x="904.833984"/>
     <use xlink:href="#DejaVuSans-37" x="968.457031"/>
     <use xlink:href="#DejaVuSans-33" x="1032.080078"/>
     <use xlink:href="#DejaVuSans-5d" x="1095.703125"/>
    </g>
    <!-- class = 0 -->
    <g transform="translate(289.262572 574.153564) scale(0.131691 -0.131691)">
     <use xlink:href="#DejaVuSans-63"/>
     <use xlink:href="#DejaVuSans-6c" x="54.980469"/>
     <use xlink:href="#DejaVuSans-61" x="82.763672"/>
     <use xlink:href="#DejaVuSans-73" x="144.042969"/>
     <use xlink:href="#DejaVuSans-73" x="196.142578"/>
     <use xlink:href="#DejaVuSans-20" x="248.242188"/>
     <use xlink:href="#DejaVuSans-3d" x="280.029297"/>
     <use xlink:href="#DejaVuSans-20" x="363.818359"/>
     <use xlink:href="#DejaVuSans-30" x="395.605469"/>
    </g>
   </g>
   <g id="patch_4">
    <path d="M 571.752799 512.967148 
Q 516.316365 439.528776 460.206332 365.198066 
" style="fill: none; stroke: #000000; stroke-linecap: round"/>
    <path d="M 570.68126 507.17606 
L 571.752799 512.967148 
L 566.477004 510.349726 
" style="fill: none; stroke: #000000; stroke-linecap: round"/>
   </g>
   <g id="text_3">
    <g id="patch_5">
     <path d="M 515.408288 580.843042 
L 681.591712 580.843042 
Q 685.542434 580.843042 685.542434 576.89232 
L 685.542434 519.90768 
Q 685.542434 515.956958 681.591712 515.956958 
L 515.408288 515.956958 
Q 511.457566 515.956958 511.457566 519.90768 
L 511.457566 576.89232 
Q 511.457566 580.843042 515.408288 580.843042 
z
" style="fill: #f6d2b8; stroke: #000000; stroke-linejoin: miter"/>
    </g>
    <!-- gini = 0.476 -->
    <g transform="translate(557.935137 529.914118) scale(0.131691 -0.131691)">
     <use xlink:href="#DejaVuSans-67"/>
     <use xlink:href="#DejaVuSans-69" x="63.476562"/>
     <use xlink:href="#DejaVuSans-6e" x="91.259766"/>
     <use xlink:href="#DejaVuSans-69" x="154.638672"/>
     <use xlink:href="#DejaVuSans-20" x="182.421875"/>
     <use xlink:href="#DejaVuSans-3d" x="214.208984"/>
     <use xlink:href="#DejaVuSans-20" x="297.998047"/>
     <use xlink:href="#DejaVuSans-30" x="329.785156"/>
     <use xlink:href="#DejaVuSans-2e" x="393.408203"/>
     <use xlink:href="#DejaVuSans-34" x="425.195312"/>
     <use xlink:href="#DejaVuSans-37" x="488.818359"/>
     <use xlink:href="#DejaVuSans-36" x="552.441406"/>
    </g>
    <!-- samples = 5941 -->
    <g transform="translate(544.669353 544.6606) scale(0.131691 -0.131691)">
     <use xlink:href="#DejaVuSans-73"/>
     <use xlink:href="#DejaVuSans-61" x="52.099609"/>
     <use xlink:href="#DejaVuSans-6d" x="113.378906"/>
     <use xlink:href="#DejaVuSans-70" x="210.791016"/>
     <use xlink:href="#DejaVuSans-6c" x="274.267578"/>
     <use xlink:href="#DejaVuSans-65" x="302.050781"/>
     <use xlink:href="#DejaVuSans-73" x="363.574219"/>
     <use xlink:href="#DejaVuSans-20" x="415.673828"/>
     <use xlink:href="#DejaVuSans-3d" x="447.460938"/>
     <use xlink:href="#DejaVuSans-20" x="531.25"/>
     <use xlink:href="#DejaVuSans-35" x="563.037109"/>
     <use xlink:href="#DejaVuSans-39" x="626.660156"/>
     <use xlink:href="#DejaVuSans-34" x="690.283203"/>
     <use xlink:href="#DejaVuSans-31" x="753.90625"/>
    </g>
    <!-- value = [5672.0, 3639.0] -->
    <g transform="translate(515.408288 559.407082) scale(0.131691 -0.131691)">
     <defs>
      <path id="DejaVuSans-32" d="M 1228 531 
L 3431 531 
L 3431 0 
L 469 0 
L 469 531 
Q 828 903 1448 1529 
Q 2069 2156 2228 2338 
Q 2531 2678 2651 2914 
Q 2772 3150 2772 3378 
Q 2772 3750 2511 3984 
Q 2250 4219 1831 4219 
Q 1534 4219 1204 4116 
Q 875 4013 500 3803 
L 500 4441 
Q 881 4594 1212 4672 
Q 1544 4750 1819 4750 
Q 2544 4750 2975 4387 
Q 3406 4025 3406 3419 
Q 3406 3131 3298 2873 
Q 3191 2616 2906 2266 
Q 2828 2175 2409 1742 
Q 1991 1309 1228 531 
z
" transform="scale(0.015625)"/>
     </defs>
     <use xlink:href="#DejaVuSans-76"/>
     <use xlink:href="#DejaVuSans-61" x="59.179688"/>
     <use xlink:href="#DejaVuSans-6c" x="120.458984"/>
     <use xlink:href="#DejaVuSans-75" x="148.242188"/>
     <use xlink:href="#DejaVuSans-65" x="211.621094"/>
     <use xlink:href="#DejaVuSans-20" x="273.144531"/>
     <use xlink:href="#DejaVuSans-3d" x="304.931641"/>
     <use xlink:href="#DejaVuSans-20" x="388.720703"/>
     <use xlink:href="#DejaVuSans-5b" x="420.507812"/>
     <use xlink:href="#DejaVuSans-35" x="459.521484"/>
     <use xlink:href="#DejaVuSans-36" x="523.144531"/>
     <use xlink:href="#DejaVuSans-37" x="586.767578"/>
     <use xlink:href="#DejaVuSans-32" x="650.390625"/>
     <use xlink:href="#DejaVuSans-2e" x="714.013672"/>
     <use xlink:href="#DejaVuSans-30" x="745.800781"/>
     <use xlink:href="#DejaVuSans-2c" x="809.423828"/>
     <use xlink:href="#DejaVuSans-20" x="841.210938"/>
     <use xlink:href="#DejaVuSans-33" x="872.998047"/>
     <use xlink:href="#DejaVuSans-36" x="936.621094"/>
     <use xlink:href="#DejaVuSans-33" x="1000.244141"/>
     <use xlink:href="#DejaVuSans-39" x="1063.867188"/>
     <use xlink:href="#DejaVuSans-2e" x="1127.490234"/>
     <use xlink:href="#DejaVuSans-30" x="1159.277344"/>
     <use xlink:href="#DejaVuSans-5d" x="1222.900391"/>
    </g>
    <!-- class = 0 -->
    <g transform="translate(568.262572 574.153564) scale(0.131691 -0.131691)">
     <use xlink:href="#DejaVuSans-63"/>
     <use xlink:href="#DejaVuSans-6c" x="54.980469"/>
     <use xlink:href="#DejaVuSans-61" x="82.763672"/>
     <use xlink:href="#DejaVuSans-73" x="144.042969"/>
     <use xlink:href="#DejaVuSans-73" x="196.142578"/>
     <use xlink:href="#DejaVuSans-20" x="248.242188"/>
     <use xlink:href="#DejaVuSans-3d" x="280.029297"/>
     <use xlink:href="#DejaVuSans-20" x="363.818359"/>
     <use xlink:href="#DejaVuSans-30" x="395.605469"/>
    </g>
   </g>
   <g id="patch_6">
    <path d="M 904.247201 512.967148 
Q 959.683635 439.528776 1015.793668 365.198066 
" style="fill: none; stroke: #000000; stroke-linecap: round"/>
    <path d="M 909.522996 510.349726 
L 904.247201 512.967148 
L 905.31874 507.17606 
" style="fill: none; stroke: #000000; stroke-linecap: round"/>
   </g>
   <g id="text_4">
    <g id="patch_7">
     <path d="M 802.787111 580.843042 
L 952.212889 580.843042 
Q 956.163611 580.843042 956.163611 576.89232 
L 956.163611 519.90768 
Q 956.163611 515.956958 952.212889 515.956958 
L 802.787111 515.956958 
Q 798.836389 515.956958 798.836389 519.90768 
L 798.836389 576.89232 
Q 798.836389 580.843042 802.787111 580.843042 
z
" style="fill: #dceefa; stroke: #000000; stroke-linejoin: miter"/>
    </g>
    <!-- gini = 0.495 -->
    <g transform="translate(836.935137 529.914118) scale(0.131691 -0.131691)">
     <use xlink:href="#DejaVuSans-67"/>
     <use xlink:href="#DejaVuSans-69" x="63.476562"/>
     <use xlink:href="#DejaVuSans-6e" x="91.259766"/>
     <use xlink:href="#DejaVuSans-69" x="154.638672"/>
     <use xlink:href="#DejaVuSans-20" x="182.421875"/>
     <use xlink:href="#DejaVuSans-3d" x="214.208984"/>
     <use xlink:href="#DejaVuSans-20" x="297.998047"/>
     <use xlink:href="#DejaVuSans-30" x="329.785156"/>
     <use xlink:href="#DejaVuSans-2e" x="393.408203"/>
     <use xlink:href="#DejaVuSans-34" x="425.195312"/>
     <use xlink:href="#DejaVuSans-39" x="488.818359"/>
     <use xlink:href="#DejaVuSans-35" x="552.441406"/>
    </g>
    <!-- samples = 483 -->
    <g transform="translate(827.858764 544.6606) scale(0.131691 -0.131691)">
     <use xlink:href="#DejaVuSans-73"/>
     <use xlink:href="#DejaVuSans-61" x="52.099609"/>
     <use xlink:href="#DejaVuSans-6d" x="113.378906"/>
     <use xlink:href="#DejaVuSans-70" x="210.791016"/>
     <use xlink:href="#DejaVuSans-6c" x="274.267578"/>
     <use xlink:href="#DejaVuSans-65" x="302.050781"/>
     <use xlink:href="#DejaVuSans-73" x="363.574219"/>
     <use xlink:href="#DejaVuSans-20" x="415.673828"/>
     <use xlink:href="#DejaVuSans-3d" x="447.460938"/>
     <use xlink:href="#DejaVuSans-20" x="531.25"/>
     <use xlink:href="#DejaVuSans-34" x="563.037109"/>
     <use xlink:href="#DejaVuSans-38" x="626.660156"/>
     <use xlink:href="#DejaVuSans-33" x="690.283203"/>
    </g>
    <!-- value = [335.0, 406.0] -->
    <g transform="translate(802.787111 559.407082) scale(0.131691 -0.131691)">
     <use xlink:href="#DejaVuSans-76"/>
     <use xlink:href="#DejaVuSans-61" x="59.179688"/>
     <use xlink:href="#DejaVuSans-6c" x="120.458984"/>
     <use xlink:href="#DejaVuSans-75" x="148.242188"/>
     <use xlink:href="#DejaVuSans-65" x="211.621094"/>
     <use xlink:href="#DejaVuSans-20" x="273.144531"/>
     <use xlink:href="#DejaVuSans-3d" x="304.931641"/>
     <use xlink:href="#DejaVuSans-20" x="388.720703"/>
     <use xlink:href="#DejaVuSans-5b" x="420.507812"/>
     <use xlink:href="#DejaVuSans-33" x="459.521484"/>
     <use xlink:href="#DejaVuSans-33" x="523.144531"/>
     <use xlink:href="#DejaVuSans-35" x="586.767578"/>
     <use xlink:href="#DejaVuSans-2e" x="650.390625"/>
     <use xlink:href="#DejaVuSans-30" x="682.177734"/>
     <use xlink:href="#DejaVuSans-2c" x="745.800781"/>
     <use xlink:href="#DejaVuSans-20" x="777.587891"/>
     <use xlink:href="#DejaVuSans-34" x="809.375"/>
     <use xlink:href="#DejaVuSans-30" x="872.998047"/>
     <use xlink:href="#DejaVuSans-36" x="936.621094"/>
     <use xlink:href="#DejaVuSans-2e" x="1000.244141"/>
     <use xlink:href="#DejaVuSans-30" x="1032.03125"/>
     <use xlink:href="#DejaVuSans-5d" x="1095.654297"/>
    </g>
    <!-- class = 1 -->
    <g transform="translate(847.262572 574.153564) scale(0.131691 -0.131691)">
     <use xlink:href="#DejaVuSans-63"/>
     <use xlink:href="#DejaVuSans-6c" x="54.980469"/>
     <use xlink:href="#DejaVuSans-61" x="82.763672"/>
     <use xlink:href="#DejaVuSans-73" x="144.042969"/>
     <use xlink:href="#DejaVuSans-73" x="196.142578"/>
     <use xlink:href="#DejaVuSans-20" x="248.242188"/>
     <use xlink:href="#DejaVuSans-3d" x="280.029297"/>
     <use xlink:href="#DejaVuSans-20" x="363.818359"/>
     <use xlink:href="#DejaVuSans-31" x="395.605469"/>
    </g>
   </g>
   <g id="patch_8">
    <path d="M 1129.752799 512.967148 
Q 1074.316365 439.528776 1018.206332 365.198066 
" style="fill: none; stroke: #000000; stroke-linecap: round"/>
    <path d="M 1128.68126 507.17606 
L 1129.752799 512.967148 
L 1124.477004 510.349726 
" style="fill: none; stroke: #000000; stroke-linecap: round"/>
   </g>
   <g id="text_5">
    <g id="patch_9">
     <path d="M 1081.782996 580.843042 
L 1231.217004 580.843042 
Q 1235.167726 580.843042 1235.167726 576.89232 
L 1235.167726 519.90768 
Q 1235.167726 515.956958 1231.217004 515.956958 
L 1081.782996 515.956958 
Q 1077.832274 515.956958 1077.832274 519.90768 
L 1077.832274 576.89232 
Q 1077.832274 580.843042 1081.782996 580.843042 
z
" style="fill: #abd6f4; stroke: #000000; stroke-linejoin: miter"/>
    </g>
    <!-- gini = 0.464 -->
    <g transform="translate(1115.935137 529.914118) scale(0.131691 -0.131691)">
     <use xlink:href="#DejaVuSans-67"/>
     <use xlink:href="#DejaVuSans-69" x="63.476562"/>
     <use xlink:href="#DejaVuSans-6e" x="91.259766"/>
     <use xlink:href="#DejaVuSans-69" x="154.638672"/>
     <use xlink:href="#DejaVuSans-20" x="182.421875"/>
     <use xlink:href="#DejaVuSans-3d" x="214.208984"/>
     <use xlink:href="#DejaVuSans-20" x="297.998047"/>
     <use xlink:href="#DejaVuSans-30" x="329.785156"/>
     <use xlink:href="#DejaVuSans-2e" x="393.408203"/>
     <use xlink:href="#DejaVuSans-34" x="425.195312"/>
     <use xlink:href="#DejaVuSans-36" x="488.818359"/>
     <use xlink:href="#DejaVuSans-34" x="552.441406"/>
    </g>
    <!-- samples = 13305 -->
    <g transform="translate(1098.479941 544.6606) scale(0.131691 -0.131691)">
     <use xlink:href="#DejaVuSans-73"/>
     <use xlink:href="#DejaVuSans-61" x="52.099609"/>
     <use xlink:href="#DejaVuSans-6d" x="113.378906"/>
     <use xlink:href="#DejaVuSans-70" x="210.791016"/>
     <use xlink:href="#DejaVuSans-6c" x="274.267578"/>
     <use xlink:href="#DejaVuSans-65" x="302.050781"/>
     <use xlink:href="#DejaVuSans-73" x="363.574219"/>
     <use xlink:href="#DejaVuSans-20" x="415.673828"/>
     <use xlink:href="#DejaVuSans-3d" x="447.460938"/>
     <use xlink:href="#DejaVuSans-20" x="531.25"/>
     <use xlink:href="#DejaVuSans-31" x="563.037109"/>
     <use xlink:href="#DejaVuSans-33" x="626.660156"/>
     <use xlink:href="#DejaVuSans-33" x="690.283203"/>
     <use xlink:href="#DejaVuSans-30" x="753.90625"/>
     <use xlink:href="#DejaVuSans-35" x="817.529297"/>
    </g>
    <!-- value = [7656, 13255] -->
    <g transform="translate(1081.782996 559.407082) scale(0.131691 -0.131691)">
     <use xlink:href="#DejaVuSans-76"/>
     <use xlink:href="#DejaVuSans-61" x="59.179688"/>
     <use xlink:href="#DejaVuSans-6c" x="120.458984"/>
     <use xlink:href="#DejaVuSans-75" x="148.242188"/>
     <use xlink:href="#DejaVuSans-65" x="211.621094"/>
     <use xlink:href="#DejaVuSans-20" x="273.144531"/>
     <use xlink:href="#DejaVuSans-3d" x="304.931641"/>
     <use xlink:href="#DejaVuSans-20" x="388.720703"/>
     <use xlink:href="#DejaVuSans-5b" x="420.507812"/>
     <use xlink:href="#DejaVuSans-37" x="459.521484"/>
     <use xlink:href="#DejaVuSans-36" x="523.144531"/>
     <use xlink:href="#DejaVuSans-35" x="586.767578"/>
     <use xlink:href="#DejaVuSans-36" x="650.390625"/>
     <use xlink:href="#DejaVuSans-2c" x="714.013672"/>
     <use xlink:href="#DejaVuSans-20" x="745.800781"/>
     <use xlink:href="#DejaVuSans-31" x="777.587891"/>
     <use xlink:href="#DejaVuSans-33" x="841.210938"/>
     <use xlink:href="#DejaVuSans-32" x="904.833984"/>
     <use xlink:href="#DejaVuSans-35" x="968.457031"/>
     <use xlink:href="#DejaVuSans-35" x="1032.080078"/>
     <use xlink:href="#DejaVuSans-5d" x="1095.703125"/>
    </g>
    <!-- class = 1 -->
    <g transform="translate(1126.262572 574.153564) scale(0.131691 -0.131691)">
     <use xlink:href="#DejaVuSans-63"/>
     <use xlink:href="#DejaVuSans-6c" x="54.980469"/>
     <use xlink:href="#DejaVuSans-61" x="82.763672"/>
     <use xlink:href="#DejaVuSans-73" x="144.042969"/>
     <use xlink:href="#DejaVuSans-73" x="196.142578"/>
     <use xlink:href="#DejaVuSans-20" x="248.242188"/>
     <use xlink:href="#DejaVuSans-3d" x="280.029297"/>
     <use xlink:href="#DejaVuSans-20" x="363.818359"/>
     <use xlink:href="#DejaVuSans-31" x="395.605469"/>
    </g>
   </g>
   <g id="patch_10">
    <path d="M 522.467003 321.561641 
Q 628.933442 251.041935 736.331987 179.904834 
" style="fill: none; stroke: #000000; stroke-linecap: round"/>
    <path d="M 528.313067 320.848591 
L 522.467003 321.561641 
L 525.404201 316.45696 
" style="fill: none; stroke: #000000; stroke-linecap: round"/>
   </g>
   <g id="text_6">
    <g id="patch_11">
     <path d="M 323.442903 403.416283 
L 594.557097 403.416283 
Q 598.507819 403.416283 598.507819 399.465561 
L 598.507819 327.734439 
Q 598.507819 323.783717 594.557097 323.783717 
L 323.442903 323.783717 
Q 319.492181 323.783717 319.492181 327.734439 
L 319.492181 399.465561 
Q 319.492181 403.416283 323.442903 403.416283 
z
" style="fill: #e6843e; stroke: #000000; stroke-linejoin: miter"/>
    </g>
    <!-- [15.96337931  1.84931583] &lt;= 100.055 -->
    <g transform="translate(323.442903 337.740877) scale(0.131691 -0.131691)">
     <defs>
      <path id="DejaVuSans-3c" d="M 4684 3150 
L 1459 2003 
L 4684 863 
L 4684 294 
L 678 1747 
L 678 2266 
L 4684 3719 
L 4684 3150 
z
" transform="scale(0.015625)"/>
     </defs>
     <use xlink:href="#DejaVuSans-5b"/>
     <use xlink:href="#DejaVuSans-31" x="39.013672"/>
     <use xlink:href="#DejaVuSans-35" x="102.636719"/>
     <use xlink:href="#DejaVuSans-2e" x="166.259766"/>
     <use xlink:href="#DejaVuSans-39" x="198.046875"/>
     <use xlink:href="#DejaVuSans-36" x="261.669922"/>
     <use xlink:href="#DejaVuSans-33" x="325.292969"/>
     <use xlink:href="#DejaVuSans-33" x="388.916016"/>
     <use xlink:href="#DejaVuSans-37" x="452.539062"/>
     <use xlink:href="#DejaVuSans-39" x="516.162109"/>
     <use xlink:href="#DejaVuSans-33" x="579.785156"/>
     <use xlink:href="#DejaVuSans-31" x="643.408203"/>
     <use xlink:href="#DejaVuSans-20" x="707.03125"/>
     <use xlink:href="#DejaVuSans-20" x="738.818359"/>
     <use xlink:href="#DejaVuSans-31" x="770.605469"/>
     <use xlink:href="#DejaVuSans-2e" x="834.228516"/>
     <use xlink:href="#DejaVuSans-38" x="866.015625"/>
     <use xlink:href="#DejaVuSans-34" x="929.638672"/>
     <use xlink:href="#DejaVuSans-39" x="993.261719"/>
     <use xlink:href="#DejaVuSans-33" x="1056.884766"/>
     <use xlink:href="#DejaVuSans-31" x="1120.507812"/>
     <use xlink:href="#DejaVuSans-35" x="1184.130859"/>
     <use xlink:href="#DejaVuSans-38" x="1247.753906"/>
     <use xlink:href="#DejaVuSans-33" x="1311.376953"/>
     <use xlink:href="#DejaVuSans-5d" x="1375"/>
     <use xlink:href="#DejaVuSans-20" x="1414.013672"/>
     <use xlink:href="#DejaVuSans-3c" x="1445.800781"/>
     <use xlink:href="#DejaVuSans-3d" x="1529.589844"/>
     <use xlink:href="#DejaVuSans-20" x="1613.378906"/>
     <use xlink:href="#DejaVuSans-31" x="1645.166016"/>
     <use xlink:href="#DejaVuSans-30" x="1708.789062"/>
     <use xlink:href="#DejaVuSans-30" x="1772.412109"/>
     <use xlink:href="#DejaVuSans-2e" x="1836.035156"/>
     <use xlink:href="#DejaVuSans-30" x="1867.822266"/>
     <use xlink:href="#DejaVuSans-35" x="1931.445312"/>
     <use xlink:href="#DejaVuSans-35" x="1995.068359"/>
    </g>
    <!-- gini = 0.047 -->
    <g transform="translate(418.435137 352.487359) scale(0.131691 -0.131691)">
     <use xlink:href="#DejaVuSans-67"/>
     <use xlink:href="#DejaVuSans-69" x="63.476562"/>
     <use xlink:href="#DejaVuSans-6e" x="91.259766"/>
     <use xlink:href="#DejaVuSans-69" x="154.638672"/>
     <use xlink:href="#DejaVuSans-20" x="182.421875"/>
     <use xlink:href="#DejaVuSans-3d" x="214.208984"/>
     <use xlink:href="#DejaVuSans-20" x="297.998047"/>
     <use xlink:href="#DejaVuSans-30" x="329.785156"/>
     <use xlink:href="#DejaVuSans-2e" x="393.408203"/>
     <use xlink:href="#DejaVuSans-30" x="425.195312"/>
     <use xlink:href="#DejaVuSans-34" x="488.818359"/>
     <use xlink:href="#DejaVuSans-37" x="552.441406"/>
    </g>
    <!-- samples = 120434 -->
    <g transform="translate(396.790529 367.233841) scale(0.131691 -0.131691)">
     <use xlink:href="#DejaVuSans-73"/>
     <use xlink:href="#DejaVuSans-61" x="52.099609"/>
     <use xlink:href="#DejaVuSans-6d" x="113.378906"/>
     <use xlink:href="#DejaVuSans-70" x="210.791016"/>
     <use xlink:href="#DejaVuSans-6c" x="274.267578"/>
     <use xlink:href="#DejaVuSans-65" x="302.050781"/>
     <use xlink:href="#DejaVuSans-73" x="363.574219"/>
     <use xlink:href="#DejaVuSans-20" x="415.673828"/>
     <use xlink:href="#DejaVuSans-3d" x="447.460938"/>
     <use xlink:href="#DejaVuSans-20" x="531.25"/>
     <use xlink:href="#DejaVuSans-31" x="563.037109"/>
     <use xlink:href="#DejaVuSans-32" x="626.660156"/>
     <use xlink:href="#DejaVuSans-30" x="690.283203"/>
     <use xlink:href="#DejaVuSans-34" x="753.90625"/>
     <use xlink:href="#DejaVuSans-33" x="817.529297"/>
     <use xlink:href="#DejaVuSans-34" x="881.152344"/>
    </g>
    <!-- value = [186236, 4612] -->
    <g transform="translate(380.093584 381.980323) scale(0.131691 -0.131691)">
     <use xlink:href="#DejaVuSans-76"/>
     <use xlink:href="#DejaVuSans-61" x="59.179688"/>
     <use xlink:href="#DejaVuSans-6c" x="120.458984"/>
     <use xlink:href="#DejaVuSans-75" x="148.242188"/>
     <use xlink:href="#DejaVuSans-65" x="211.621094"/>
     <use xlink:href="#DejaVuSans-20" x="273.144531"/>
     <use xlink:href="#DejaVuSans-3d" x="304.931641"/>
     <use xlink:href="#DejaVuSans-20" x="388.720703"/>
     <use xlink:href="#DejaVuSans-5b" x="420.507812"/>
     <use xlink:href="#DejaVuSans-31" x="459.521484"/>
     <use xlink:href="#DejaVuSans-38" x="523.144531"/>
     <use xlink:href="#DejaVuSans-36" x="586.767578"/>
     <use xlink:href="#DejaVuSans-32" x="650.390625"/>
     <use xlink:href="#DejaVuSans-33" x="714.013672"/>
     <use xlink:href="#DejaVuSans-36" x="777.636719"/>
     <use xlink:href="#DejaVuSans-2c" x="841.259766"/>
     <use xlink:href="#DejaVuSans-20" x="873.046875"/>
     <use xlink:href="#DejaVuSans-34" x="904.833984"/>
     <use xlink:href="#DejaVuSans-36" x="968.457031"/>
     <use xlink:href="#DejaVuSans-31" x="1032.080078"/>
     <use xlink:href="#DejaVuSans-32" x="1095.703125"/>
     <use xlink:href="#DejaVuSans-5d" x="1159.326172"/>
    </g>
    <!-- class = 0 -->
    <g transform="translate(428.762572 396.726805) scale(0.131691 -0.131691)">
     <use xlink:href="#DejaVuSans-63"/>
     <use xlink:href="#DejaVuSans-6c" x="54.980469"/>
     <use xlink:href="#DejaVuSans-61" x="82.763672"/>
     <use xlink:href="#DejaVuSans-73" x="144.042969"/>
     <use xlink:href="#DejaVuSans-73" x="196.142578"/>
     <use xlink:href="#DejaVuSans-20" x="248.242188"/>
     <use xlink:href="#DejaVuSans-3d" x="280.029297"/>
     <use xlink:href="#DejaVuSans-20" x="363.818359"/>
     <use xlink:href="#DejaVuSans-30" x="395.605469"/>
    </g>
   </g>
   <g id="patch_12">
    <path d="M 953.532997 321.561641 
Q 847.066558 251.041935 739.668013 179.904834 
" style="fill: none; stroke: #000000; stroke-linecap: round"/>
    <path d="M 950.595799 316.45696 
L 953.532997 321.561641 
L 947.686933 320.848591 
" style="fill: none; stroke: #000000; stroke-linecap: round"/>
   </g>
   <g id="text_7">
    <g id="patch_13">
     <path d="M 898.20055 403.416283 
L 1135.79945 403.416283 
Q 1139.750173 403.416283 1139.750173 399.465561 
L 1139.750173 327.734439 
Q 1139.750173 323.783717 1135.79945 323.783717 
L 898.20055 323.783717 
Q 894.249827 323.783717 894.249827 327.734439 
L 894.249827 399.465561 
Q 894.249827 403.416283 898.20055 403.416283 
z
" style="fill: #add6f4; stroke: #000000; stroke-linejoin: miter"/>
    </g>
    <!-- [30.14921718  0.18521051] &lt;= 4.1 -->
    <g transform="translate(898.20055 337.740877) scale(0.131691 -0.131691)">
     <use xlink:href="#DejaVuSans-5b"/>
     <use xlink:href="#DejaVuSans-33" x="39.013672"/>
     <use xlink:href="#DejaVuSans-30" x="102.636719"/>
     <use xlink:href="#DejaVuSans-2e" x="166.259766"/>
     <use xlink:href="#DejaVuSans-31" x="198.046875"/>
     <use xlink:href="#DejaVuSans-34" x="261.669922"/>
     <use xlink:href="#DejaVuSans-39" x="325.292969"/>
     <use xlink:href="#DejaVuSans-32" x="388.916016"/>
     <use xlink:href="#DejaVuSans-31" x="452.539062"/>
     <use xlink:href="#DejaVuSans-37" x="516.162109"/>
     <use xlink:href="#DejaVuSans-31" x="579.785156"/>
     <use xlink:href="#DejaVuSans-38" x="643.408203"/>
     <use xlink:href="#DejaVuSans-20" x="707.03125"/>
     <use xlink:href="#DejaVuSans-20" x="738.818359"/>
     <use xlink:href="#DejaVuSans-30" x="770.605469"/>
     <use xlink:href="#DejaVuSans-2e" x="834.228516"/>
     <use xlink:href="#DejaVuSans-31" x="866.015625"/>
     <use xlink:href="#DejaVuSans-38" x="929.638672"/>
     <use xlink:href="#DejaVuSans-35" x="993.261719"/>
     <use xlink:href="#DejaVuSans-32" x="1056.884766"/>
     <use xlink:href="#DejaVuSans-31" x="1120.507812"/>
     <use xlink:href="#DejaVuSans-30" x="1184.130859"/>
     <use xlink:href="#DejaVuSans-35" x="1247.753906"/>
     <use xlink:href="#DejaVuSans-31" x="1311.376953"/>
     <use xlink:href="#DejaVuSans-5d" x="1375"/>
     <use xlink:href="#DejaVuSans-20" x="1414.013672"/>
     <use xlink:href="#DejaVuSans-3c" x="1445.800781"/>
     <use xlink:href="#DejaVuSans-3d" x="1529.589844"/>
     <use xlink:href="#DejaVuSans-20" x="1613.378906"/>
     <use xlink:href="#DejaVuSans-34" x="1645.166016"/>
     <use xlink:href="#DejaVuSans-2e" x="1708.789062"/>
     <use xlink:href="#DejaVuSans-31" x="1740.576172"/>
    </g>
    <!-- gini = 0.466 -->
    <g transform="translate(976.435137 352.487359) scale(0.131691 -0.131691)">
     <use xlink:href="#DejaVuSans-67"/>
     <use xlink:href="#DejaVuSans-69" x="63.476562"/>
     <use xlink:href="#DejaVuSans-6e" x="91.259766"/>
     <use xlink:href="#DejaVuSans-69" x="154.638672"/>
     <use xlink:href="#DejaVuSans-20" x="182.421875"/>
     <use xlink:href="#DejaVuSans-3d" x="214.208984"/>
     <use xlink:href="#DejaVuSans-20" x="297.998047"/>
     <use xlink:href="#DejaVuSans-30" x="329.785156"/>
     <use xlink:href="#DejaVuSans-2e" x="393.408203"/>
     <use xlink:href="#DejaVuSans-34" x="425.195312"/>
     <use xlink:href="#DejaVuSans-36" x="488.818359"/>
     <use xlink:href="#DejaVuSans-36" x="552.441406"/>
    </g>
    <!-- samples = 13788 -->
    <g transform="translate(958.979941 367.233841) scale(0.131691 -0.131691)">
     <use xlink:href="#DejaVuSans-73"/>
     <use xlink:href="#DejaVuSans-61" x="52.099609"/>
     <use xlink:href="#DejaVuSans-6d" x="113.378906"/>
     <use xlink:href="#DejaVuSans-70" x="210.791016"/>
     <use xlink:href="#DejaVuSans-6c" x="274.267578"/>
     <use xlink:href="#DejaVuSans-65" x="302.050781"/>
     <use xlink:href="#DejaVuSans-73" x="363.574219"/>
     <use xlink:href="#DejaVuSans-20" x="415.673828"/>
     <use xlink:href="#DejaVuSans-3d" x="447.460938"/>
     <use xlink:href="#DejaVuSans-20" x="531.25"/>
     <use xlink:href="#DejaVuSans-31" x="563.037109"/>
     <use xlink:href="#DejaVuSans-33" x="626.660156"/>
     <use xlink:href="#DejaVuSans-37" x="690.283203"/>
     <use xlink:href="#DejaVuSans-38" x="753.90625"/>
     <use xlink:href="#DejaVuSans-38" x="817.529297"/>
    </g>
    <!-- value = [7991, 13661] -->
    <g transform="translate(942.282996 381.980323) scale(0.131691 -0.131691)">
     <use xlink:href="#DejaVuSans-76"/>
     <use xlink:href="#DejaVuSans-61" x="59.179688"/>
     <use xlink:href="#DejaVuSans-6c" x="120.458984"/>
     <use xlink:href="#DejaVuSans-75" x="148.242188"/>
     <use xlink:href="#DejaVuSans-65" x="211.621094"/>
     <use xlink:href="#DejaVuSans-20" x="273.144531"/>
     <use xlink:href="#DejaVuSans-3d" x="304.931641"/>
     <use xlink:href="#DejaVuSans-20" x="388.720703"/>
     <use xlink:href="#DejaVuSans-5b" x="420.507812"/>
     <use xlink:href="#DejaVuSans-37" x="459.521484"/>
     <use xlink:href="#DejaVuSans-39" x="523.144531"/>
     <use xlink:href="#DejaVuSans-39" x="586.767578"/>
     <use xlink:href="#DejaVuSans-31" x="650.390625"/>
     <use xlink:href="#DejaVuSans-2c" x="714.013672"/>
     <use xlink:href="#DejaVuSans-20" x="745.800781"/>
     <use xlink:href="#DejaVuSans-31" x="777.587891"/>
     <use xlink:href="#DejaVuSans-33" x="841.210938"/>
     <use xlink:href="#DejaVuSans-36" x="904.833984"/>
     <use xlink:href="#DejaVuSans-36" x="968.457031"/>
     <use xlink:href="#DejaVuSans-31" x="1032.080078"/>
     <use xlink:href="#DejaVuSans-5d" x="1095.703125"/>
    </g>
    <!-- class = 1 -->
    <g transform="translate(986.762572 396.726805) scale(0.131691 -0.131691)">
     <use xlink:href="#DejaVuSans-63"/>
     <use xlink:href="#DejaVuSans-6c" x="54.980469"/>
     <use xlink:href="#DejaVuSans-61" x="82.763672"/>
     <use xlink:href="#DejaVuSans-73" x="144.042969"/>
     <use xlink:href="#DejaVuSans-73" x="196.142578"/>
     <use xlink:href="#DejaVuSans-20" x="248.242188"/>
     <use xlink:href="#DejaVuSans-3d" x="280.029297"/>
     <use xlink:href="#DejaVuSans-20" x="363.818359"/>
     <use xlink:href="#DejaVuSans-31" x="395.605469"/>
    </g>
   </g>
   <g id="patch_14">
    <path d="M 738 178.8 
Q 738 178.8 738 178.8 
" style="fill: none; stroke: #000000; stroke-linecap: round"/>
   </g>
   <g id="text_8">
    <g id="patch_15">
     <path d="M 619.20055 218.616283 
L 856.79945 218.616283 
Q 860.750173 218.616283 860.750173 214.665561 
L 860.750173 142.934439 
Q 860.750173 138.983717 856.79945 138.983717 
L 619.20055 138.983717 
Q 615.249827 138.983717 615.249827 142.934439 
L 615.249827 214.665561 
Q 615.249827 218.616283 619.20055 218.616283 
z
" style="fill: #e78d4c; stroke: #000000; stroke-linejoin: miter"/>
    </g>
    <!-- [30.14921718  0.18521051] &lt;= 4.0 -->
    <g transform="translate(619.20055 152.940877) scale(0.131691 -0.131691)">
     <use xlink:href="#DejaVuSans-5b"/>
     <use xlink:href="#DejaVuSans-33" x="39.013672"/>
     <use xlink:href="#DejaVuSans-30" x="102.636719"/>
     <use xlink:href="#DejaVuSans-2e" x="166.259766"/>
     <use xlink:href="#DejaVuSans-31" x="198.046875"/>
     <use xlink:href="#DejaVuSans-34" x="261.669922"/>
     <use xlink:href="#DejaVuSans-39" x="325.292969"/>
     <use xlink:href="#DejaVuSans-32" x="388.916016"/>
     <use xlink:href="#DejaVuSans-31" x="452.539062"/>
     <use xlink:href="#DejaVuSans-37" x="516.162109"/>
     <use xlink:href="#DejaVuSans-31" x="579.785156"/>
     <use xlink:href="#DejaVuSans-38" x="643.408203"/>
     <use xlink:href="#DejaVuSans-20" x="707.03125"/>
     <use xlink:href="#DejaVuSans-20" x="738.818359"/>
     <use xlink:href="#DejaVuSans-30" x="770.605469"/>
     <use xlink:href="#DejaVuSans-2e" x="834.228516"/>
     <use xlink:href="#DejaVuSans-31" x="866.015625"/>
     <use xlink:href="#DejaVuSans-38" x="929.638672"/>
     <use xlink:href="#DejaVuSans-35" x="993.261719"/>
     <use xlink:href="#DejaVuSans-32" x="1056.884766"/>
     <use xlink:href="#DejaVuSans-31" x="1120.507812"/>
     <use xlink:href="#DejaVuSans-30" x="1184.130859"/>
     <use xlink:href="#DejaVuSans-35" x="1247.753906"/>
     <use xlink:href="#DejaVuSans-31" x="1311.376953"/>
     <use xlink:href="#DejaVuSans-5d" x="1375"/>
     <use xlink:href="#DejaVuSans-20" x="1414.013672"/>
     <use xlink:href="#DejaVuSans-3c" x="1445.800781"/>
     <use xlink:href="#DejaVuSans-3d" x="1529.589844"/>
     <use xlink:href="#DejaVuSans-20" x="1613.378906"/>
     <use xlink:href="#DejaVuSans-34" x="1645.166016"/>
     <use xlink:href="#DejaVuSans-2e" x="1708.789062"/>
     <use xlink:href="#DejaVuSans-30" x="1740.576172"/>
    </g>
    <!-- gini = 0.157 -->
    <g transform="translate(697.435137 167.687359) scale(0.131691 -0.131691)">
     <use xlink:href="#DejaVuSans-67"/>
     <use xlink:href="#DejaVuSans-69" x="63.476562"/>
     <use xlink:href="#DejaVuSans-6e" x="91.259766"/>
     <use xlink:href="#DejaVuSans-69" x="154.638672"/>
     <use xlink:href="#DejaVuSans-20" x="182.421875"/>
     <use xlink:href="#DejaVuSans-3d" x="214.208984"/>
     <use xlink:href="#DejaVuSans-20" x="297.998047"/>
     <use xlink:href="#DejaVuSans-30" x="329.785156"/>
     <use xlink:href="#DejaVuSans-2e" x="393.408203"/>
     <use xlink:href="#DejaVuSans-31" x="425.195312"/>
     <use xlink:href="#DejaVuSans-35" x="488.818359"/>
     <use xlink:href="#DejaVuSans-37" x="552.441406"/>
    </g>
    <!-- samples = 134222 -->
    <g transform="translate(675.790529 182.433841) scale(0.131691 -0.131691)">
     <use xlink:href="#DejaVuSans-73"/>
     <use xlink:href="#DejaVuSans-61" x="52.099609"/>
     <use xlink:href="#DejaVuSans-6d" x="113.378906"/>
     <use xlink:href="#DejaVuSans-70" x="210.791016"/>
     <use xlink:href="#DejaVuSans-6c" x="274.267578"/>
     <use xlink:href="#DejaVuSans-65" x="302.050781"/>
     <use xlink:href="#DejaVuSans-73" x="363.574219"/>
     <use xlink:href="#DejaVuSans-20" x="415.673828"/>
     <use xlink:href="#DejaVuSans-3d" x="447.460938"/>
     <use xlink:href="#DejaVuSans-20" x="531.25"/>
     <use xlink:href="#DejaVuSans-31" x="563.037109"/>
     <use xlink:href="#DejaVuSans-33" x="626.660156"/>
     <use xlink:href="#DejaVuSans-34" x="690.283203"/>
     <use xlink:href="#DejaVuSans-32" x="753.90625"/>
     <use xlink:href="#DejaVuSans-32" x="817.529297"/>
     <use xlink:href="#DejaVuSans-32" x="881.152344"/>
    </g>
    <!-- value = [194227, 18273] -->
    <g transform="translate(654.904172 197.180323) scale(0.131691 -0.131691)">
     <use xlink:href="#DejaVuSans-76"/>
     <use xlink:href="#DejaVuSans-61" x="59.179688"/>
     <use xlink:href="#DejaVuSans-6c" x="120.458984"/>
     <use xlink:href="#DejaVuSans-75" x="148.242188"/>
     <use xlink:href="#DejaVuSans-65" x="211.621094"/>
     <use xlink:href="#DejaVuSans-20" x="273.144531"/>
     <use xlink:href="#DejaVuSans-3d" x="304.931641"/>
     <use xlink:href="#DejaVuSans-20" x="388.720703"/>
     <use xlink:href="#DejaVuSans-5b" x="420.507812"/>
     <use xlink:href="#DejaVuSans-31" x="459.521484"/>
     <use xlink:href="#DejaVuSans-39" x="523.144531"/>
     <use xlink:href="#DejaVuSans-34" x="586.767578"/>
     <use xlink:href="#DejaVuSans-32" x="650.390625"/>
     <use xlink:href="#DejaVuSans-32" x="714.013672"/>
     <use xlink:href="#DejaVuSans-37" x="777.636719"/>
     <use xlink:href="#DejaVuSans-2c" x="841.259766"/>
     <use xlink:href="#DejaVuSans-20" x="873.046875"/>
     <use xlink:href="#DejaVuSans-31" x="904.833984"/>
     <use xlink:href="#DejaVuSans-38" x="968.457031"/>
     <use xlink:href="#DejaVuSans-32" x="1032.080078"/>
     <use xlink:href="#DejaVuSans-37" x="1095.703125"/>
     <use xlink:href="#DejaVuSans-33" x="1159.326172"/>
     <use xlink:href="#DejaVuSans-5d" x="1222.949219"/>
    </g>
    <!-- class = 0 -->
    <g transform="translate(707.762572 211.926805) scale(0.131691 -0.131691)">
     <use xlink:href="#DejaVuSans-63"/>
     <use xlink:href="#DejaVuSans-6c" x="54.980469"/>
     <use xlink:href="#DejaVuSans-61" x="82.763672"/>
     <use xlink:href="#DejaVuSans-73" x="144.042969"/>
     <use xlink:href="#DejaVuSans-73" x="196.142578"/>
     <use xlink:href="#DejaVuSans-20" x="248.242188"/>
     <use xlink:href="#DejaVuSans-3d" x="280.029297"/>
     <use xlink:href="#DejaVuSans-20" x="363.818359"/>
     <use xlink:href="#DejaVuSans-30" x="395.605469"/>
    </g>
   </g>
  </g>
 </g>
</svg>
